<svg width="188" height="200" viewBox="0 0 188 200" fill="none" xmlns="http://www.w3.org/2000/svg">
<path d="M93.5309 164.284C129.034 164.284 157.815 135.503 157.815 99.9998C157.815 64.4968 129.034 35.7159 93.5309 35.7159C58.0279 35.7159 29.2471 64.4968 29.2471 99.9998C29.2471 135.503 58.0279 164.284 93.5309 164.284Z" fill="#FF7C48"/>
<path d="M93.5312 35.7159V164.284C129.034 164.284 157.815 135.503 157.815 100C157.815 64.4971 129.034 35.7159 93.5312 35.7159Z" fill="#FF415B"/>
<path d="M172.914 139.066L156.987 129.87C160.48 122.478 162.719 114.383 163.427 105.859H173.24V112.289H184.959V87.7113H173.24V94.1405H163.427C162.719 85.6166 160.48 77.5217 156.987 70.1299L172.914 60.9345L176.912 67.8602L187.061 62.0005L173.205 38L163.056 43.8597L167.055 50.7855L151.111 59.9907C146.341 53.1469 140.384 47.1908 133.541 42.421L138.46 33.9006L144.028 37.1152L149.887 26.9663L128.603 14.6766L122.743 24.8255L128.311 28.0401L123.401 36.5441C116.009 33.0506 107.914 30.8118 99.3904 30.1031V11.7194H107.388V0H79.6741V11.7194H87.6714V30.1031C79.1475 30.8114 71.0526 33.0506 63.6608 36.5441L58.7511 28.0401L64.3186 24.8255L58.4589 14.6766L37.1746 26.9655L43.0343 37.1145L48.6018 33.8998L53.5212 42.4202C46.6775 47.19 40.7213 53.1465 35.9511 59.9899L20.0073 50.7847L24.006 43.8589L13.857 37.9993L0 62.0001L10.149 67.8598L14.1476 60.9341L30.0746 70.1295C26.5811 77.5213 24.3423 85.6162 23.6341 94.1401H13.8218V87.7109H2.10245V112.288H13.8218V105.859H23.6341C24.3423 114.383 26.5815 122.478 30.0746 129.87L14.1476 139.065L10.1494 132.14L0.000391176 137.999L13.857 162L24.006 156.14L20.0073 149.215L35.9511 140.01C40.7209 146.853 46.6775 152.81 53.5208 157.579L48.6014 166.1L43.0339 162.885L37.1742 173.034L58.4585 185.323L64.3182 175.174L58.7508 171.959L63.6604 163.455C71.0522 166.949 79.1471 169.188 87.671 169.896V188.28H79.6737V200H107.387V188.28H99.39V169.896C107.914 169.188 116.009 166.949 123.401 163.455L128.31 171.959L122.743 175.174L128.602 185.323L149.887 173.034L144.027 162.885L138.46 166.1L133.54 157.579C140.384 152.81 146.34 146.853 151.11 140.01L167.054 149.215L163.055 156.141L173.204 162L187.061 138L176.912 132.14L172.914 139.066ZM93.5307 158.424C61.3153 158.424 35.1065 132.215 35.1065 99.9998C35.1065 67.7844 61.3153 41.5756 93.5307 41.5756C125.746 41.5756 151.955 67.7844 151.955 99.9998C151.955 132.215 125.746 158.424 93.5307 158.424Z" fill="#FF415B"/>
<path d="M117.372 96.2876C126.596 96.2876 134.073 88.8107 134.073 79.5875C134.073 70.3643 126.596 62.8874 117.372 62.8874C108.149 62.8874 100.672 70.3643 100.672 79.5875C100.672 88.8107 108.149 96.2876 117.372 96.2876Z" fill="#FFB655"/>
<path d="M114.047 141.917C120.656 135.307 120.656 124.591 114.047 117.981C107.437 111.371 96.7203 111.371 90.1106 117.981C83.5008 124.591 83.5008 135.307 90.1106 141.917C96.7203 148.527 107.437 148.527 114.047 141.917Z" fill="#FFB655"/>
<path d="M65.2868 109.766C75.4449 109.766 83.6796 101.531 83.6796 91.3728C83.6796 81.2148 75.4449 72.98 65.2868 72.98C55.1288 72.98 46.894 81.2148 46.894 91.3728C46.894 101.531 55.1288 109.766 65.2868 109.766Z" fill="#FFB655"/>
<path d="M117.372 96.2876C126.596 96.2876 134.073 88.8107 134.073 79.5875C134.073 70.3643 126.596 62.8874 117.372 62.8874C108.149 62.8874 100.672 70.3643 100.672 79.5875C100.672 88.8107 108.149 96.2876 117.372 96.2876Z" fill="#FF7C48"/>
<path d="M172.914 139.066L156.987 129.87C160.481 122.478 162.72 114.383 163.428 105.86H173.24V112.289H184.96V87.7113H173.24V94.1405H163.428C162.72 85.6167 160.48 77.5217 156.987 70.1299L172.914 60.9345L176.913 67.8602L187.062 62.0006L173.205 38.0001L163.056 43.8598L167.055 50.7855L151.111 59.9907C146.341 53.147 140.385 47.1908 133.541 42.421L138.461 33.9006L144.028 37.1153L149.888 26.9663L128.603 14.6766L122.744 24.8256L128.311 28.0402L123.402 36.5441C116.01 33.0506 107.915 30.8118 99.3909 30.1032V11.7194H107.388V3.05176e-05H93.5312V41.5757C125.747 41.5757 151.955 67.7845 151.955 99.9998C151.955 132.215 125.747 158.424 93.5312 158.424V200H107.388V188.28H99.3909V169.896C107.915 169.188 116.01 166.949 123.402 163.456L128.311 171.959L122.744 175.174L128.603 185.323L149.888 173.034L144.028 162.885L138.461 166.1L133.541 157.579C140.385 152.81 146.341 146.853 151.111 140.01L167.055 149.215L163.056 156.141L173.205 162L187.062 138L176.913 132.14L172.914 139.066Z" fill="#E50058"/>
<path d="M119.033 129.951C119.033 120.617 111.439 113.023 102.105 113.023C98.9777 113.023 96.0483 113.879 93.5317 115.364V144.539C96.0479 146.024 98.9777 146.879 102.105 146.879C111.439 146.879 119.033 139.285 119.033 129.951Z" fill="#FF7C48"/>
</svg>
