<svg width="48" height="48" viewBox="0 0 48 48" fill="none" xmlns="http://www.w3.org/2000/svg">
<path d="M47.2595 24C47.2595 11.1562 36.8439 0.740625 24.0001 0.740625C11.1563 0.740625 0.740723 11.1562 0.740723 24C0.740723 36.8437 11.1563 47.2594 24.0001 47.2594C36.8439 47.2594 47.2595 36.8437 47.2595 24Z" fill="#E04F5F"/>
<path d="M26.7187 24L33.5156 16.1062C34.2562 15.2437 34.1624 13.95 33.2999 13.2C32.4374 12.4594 31.1437 12.5531 30.4031 13.4156L23.9999 20.85L17.6062 13.425C16.8656 12.5625 15.5624 12.4687 14.6999 13.2094C13.8374 13.95 13.7437 15.2531 14.4843 16.1156L21.2812 24L14.4843 31.8938C13.7437 32.7563 13.8374 34.05 14.6999 34.8C15.0843 35.1375 15.5624 35.2969 16.0406 35.2969C16.6218 35.2969 17.1937 35.0531 17.5968 34.5844L23.9906 27.1594L30.3843 34.5844C30.7874 35.0531 31.3687 35.2969 31.9406 35.2969C32.4187 35.2969 32.8968 35.1375 33.2812 34.8C34.1437 34.0594 34.2374 32.7563 33.4968 31.8938L26.7187 24Z" fill="white"/>
</svg>
