<svg width="50" height="50" viewBox="0 0 50 50" fill="none" xmlns="http://www.w3.org/2000/svg">
<path d="M24.8439 21.1719C24.8439 21.1719 21.4064 21.875 24.2189 16.0156C26.2501 11.7969 26.0157 6.875 24.2189 4.29688C21.2501 0.156252 15.547 1.48438 16.172 3.90625C18.2032 12.1094 13.5939 14.6094 11.2501 19.7656C8.82823 25 9.06261 32.5 10.1564 39.1406C10.8595 43.2813 12.6564 48.4375 19.1407 48.4375H28.1251L24.8439 21.1719Z" fill="#FFDD67"/>
<path d="M20.1563 47.2656C13.6719 47.2656 12.2657 42.1094 11.5625 37.9687C10.4688 31.3281 10.3125 26.0156 12.4219 20.625C14.7657 14.7656 17.1875 14.6094 17.1875 3.04687C17.1875 2.5 17.5 2.10937 17.8125 1.79687C16.7188 2.1875 16.0938 2.8125 16.0938 3.75C16.0938 12.4219 13.6719 14.5312 11.3282 19.7656C8.82816 25 9.06254 32.5 10.1563 39.1406C10.8594 43.2812 12.6563 48.4375 19.1407 48.4375H28.125V47.2656H20.1563Z" fill="#EBA352"/>
<path d="M35.9375 27.9688H24.8438C20.9375 27.9688 20.9375 21.1719 24.8438 21.1719H35.9375C39.8438 21.1719 39.8438 27.9688 35.9375 27.9688Z" fill="#FFDD67"/>
<path d="M36.797 26.875H25.7032C23.047 26.875 22.2657 23.75 23.1251 21.7969C21.0157 23.4375 21.6407 28.0469 24.7657 28.0469H35.9376C37.1876 28.0469 38.047 27.3438 38.5157 26.3281C38.047 26.6406 37.5001 26.875 36.797 26.875Z" fill="#EBA352"/>
<path d="M37.1094 34.8438H23.8281C19.1406 34.8438 19.1406 28.0469 23.8281 28.0469H37.1875C41.7969 28.0469 41.7969 34.8438 37.1094 34.8438Z" fill="#FFDD67"/>
<path d="M38.2032 33.6719H24.8438C21.7188 33.6719 20.7032 30.5469 21.7969 28.5937C19.2969 30.2344 20.0001 34.8438 23.8282 34.8438H37.1876C38.6719 34.8438 39.6876 34.1406 40.2344 33.125C39.6876 33.4375 38.9844 33.6719 38.2032 33.6719Z" fill="#EBA352"/>
<path d="M35.8594 41.6406H24.6094C20.7031 41.6406 20.7031 34.8438 24.6094 34.8438H35.8594C39.8438 34.8438 39.8438 41.6406 35.8594 41.6406Z" fill="#FFDD67"/>
<path d="M36.7969 40.4687H25.4688C22.8125 40.4687 21.9531 37.3438 22.8906 35.3125C20.7813 36.9531 21.3281 41.5625 24.6094 41.5625H35.8594C37.1094 41.5625 37.9688 40.8594 38.4375 39.8437C38.0469 40.3125 37.4219 40.4687 36.7969 40.4687Z" fill="#EBA352"/>
<path d="M34.6875 48.4375H27.4219C23.2031 48.4375 23.2031 41.6406 27.4219 41.6406H34.6875C38.9063 41.6406 38.9063 48.4375 34.6875 48.4375Z" fill="#FFDD67"/>
<path d="M35.6249 47.3437H28.3593C25.5468 47.3437 24.6093 44.2188 25.6249 42.1875C23.3593 43.8281 23.9843 48.4375 27.4218 48.4375H34.6874C36.0936 48.4375 36.953 47.7344 37.4218 46.7187C36.953 47.1094 36.328 47.3437 35.6249 47.3437Z" fill="#EBA352"/>
</svg>
